# xmcd CD database file
#
# Track frame offsets:
#	150
#	19460
#	33290
#	46682
#	59400
#	72977
#	89937
#	106105
#	118130
#	133620
#	148660
#	164765
#	181583
#	195825
#	211197
#	226782
#	242070
#	257727
#
# Disc length: 3581 seconds
#
# Revision: 0
# Processed by: cddbd v1.5.1PL0 Copyright (c) Steve Scherf et al.
# Submitted via: CDex 1.51
#
DISCID=fc0dfb12
DTITLE=Verschiedene - Das Grosse Country-Archiv Folge 2
DYEAR=1900
DGENRE=Country
TTITLE0=Jonny Hill - Hallo Teddyb‰r
TTITLE1=Linda Feller - Minuten im Fieber
TTITLE2=Truck Stop - Take it easy, altes Haus
TTITLE3=Country Rose and Ralf Paulsen - Hallo Country Rose
TTITLE4=Gunter Gabriel - Hey Boss, ich brauch mehr Geld
TTITLE5=Western Union - Danke
TTITLE6=Tom Astor - Junger Adler
TTITLE7=Hanna and Daana - Leb¥ ein biﬂchen mehr
TTITLE8=Joe Hodgkins Boss Band
TTITLE9=Truck Stop - Easy Rider
TTITLE10=Linda Feller - Engel lieben meist die Falschen
TTITLE11=Greyhounds - Hallo Taxi
TTITLE12=Iris Mc Collins - Liebeskrank
TTITLE13=Gunter Gabriel - Truck Stop, Tom Astor und ich
TTITLE14=Mike Hermann and Booze Company - Zusammen mit dir
TTITLE15=Frank Baum and Country Green - Wie eine Feder im Wind
TTITLE16=Jonny Hill - Westw‰rts
TTITLE17=Trucks - Freunde wie wir
EXTD=
EXTT0=
EXTT1=
EXTT2=
EXTT3=
EXTT4=
EXTT5=
EXTT6=
EXTT7=
EXTT8=
EXTT9=
EXTT10=
EXTT11=
EXTT12=
EXTT13=
EXTT14=
EXTT15=
EXTT16=
EXTT17=
PLAYORDER=
